<?xml version="1.0" encoding="UTF-8" standalone="no"?>
<svg
   xmlns:dc="http://purl.org/dc/elements/1.1/"
   xmlns:cc="http://creativecommons.org/ns#"
   xmlns:rdf="http://www.w3.org/1999/02/22-rdf-syntax-ns#"
   xmlns:svg="http://www.w3.org/2000/svg"
   xmlns="http://www.w3.org/2000/svg"
   xmlns:sodipodi="http://sodipodi.sourceforge.net/DTD/sodipodi-0.dtd"
   xmlns:inkscape="http://www.inkscape.org/namespaces/inkscape"
   version="1.0"
   width="200"
   height="200"
   viewBox="0 0 1000.000000 845.000000"
   preserveAspectRatio="xMidYMid meet"
   id="svg8"
   sodipodi:docname="AlphaDB.svg"
   inkscape:version="0.92.2 5c3e80d, 2017-08-06">
  <defs
     id="defs12">
    <inkscape:path-effect
       effect="bspline"
       id="path-effect3705"
       is_visible="true"
       weight="33.333333"
       steps="2"
       helper_size="0"
       apply_no_weight="true"
       apply_with_weight="true"
       only_selected="false" />
  </defs>
  <sodipodi:namedview
     pagecolor="#ffffff"
     bordercolor="#666666"
     borderopacity="1"
     objecttolerance="10"
     gridtolerance="10"
     guidetolerance="10"
     inkscape:pageopacity="0"
     inkscape:pageshadow="2"
     inkscape:window-width="1901"
     inkscape:window-height="1037"
     id="namedview10"
     showgrid="false"
     inkscape:zoom="0.41893491"
     inkscape:cx="595.76911"
     inkscape:cy="582.94828"
     inkscape:window-x="7"
     inkscape:window-y="0"
     inkscape:window-maximized="0"
     inkscape:current-layer="svg8" />
  <metadata
     id="metadata2">Created By Greg Zanchelli<rdf:RDF>
  <cc:Work
     rdf:about="">
    <dc:format>image/svg+xml</dc:format>
    <dc:type
       rdf:resource="http://purl.org/dc/dcmitype/StillImage" />
    <dc:title></dc:title>
  </cc:Work>
</rdf:RDF>
</metadata>
  <g
     transform="translate(0.000000,845.000000) scale(0.100000,-0.100000)"
     fill="#000000"
     stroke="none"
     id="g6">
    <path
       d="M 4477.3357,8196.1971 C 3950.6795,8149.5813 3335.8846,7935.3701 2826.6386,7622.3775 1069.3047,6541.3325 -21.004151,4384.7919 278.23229,2576.7606 331.55078,2252.6691 414.24885,1986.2925 549.17728,1705.4871 934.37619,905.24744 1598.137,412.45069 2480.6125,271.49307 c 180.63,-28.85747 756.2521,-28.85747 973.8786,0 1022.8446,136.51801 2011.957,584.91861 2908.5782,1320.78403 79.4337,66.5942 146.8979,118.7596 147.986,116.5398 1.0882,-2.2198 16.322,-53.2754 32.644,-113.2101 41.349,-155.3863 95.7556,-300.7836 169.7487,-456.1699 217.6264,-458.38982 533.1849,-742.52485 944.499,-851.29529 108.8132,-28.85747 153.4267,-34.40698 309.0296,-38.84659 263.3281,-8.87923 414.5785,19.97824 616.9712,114.31996 349.2905,163.15567 683.3472,544.96211 820.4518,933.42802 54.4066,153.1665 48.966,240.8489 -15.2338,297.4539 -29.3796,24.4178 -43.5253,27.7476 -118.6065,27.7476 -132.7521,0 -155.6029,-18.8684 -213.274,-173.1448 C 8985.4687,1253.7568 8887.5367,1091.7111 8754.7845,948.53364 8643.795,827.55425 8551.3037,756.52047 8427.2566,694.3659 c -121.8707,-61.04462 -214.362,-85.46246 -326.4397,-86.57237 -73.993,-1.1099 -95.7557,3.32971 -147.986,29.96735 -278.5619,138.73781 -386.287,628.20482 -391.7277,1781.39362 l -1.0882,380.6966 118.6064,152.0566 c 591.9442,755.8436 1057.6649,1531.6655 1448.3044,2410.7083 255.7112,576.0394 483.1309,1247.5305 589.7679,1736.9975 29.3796,134.2982 21.7626,188.6834 -35.9084,229.7498 -50.054,36.6268 -203.4808,42.1763 -254.623,9.9891 -48.966,-31.0773 -62.0236,-63.2645 -118.6064,-281.9153 C 9243.356,6806.5992 9057.2853,6240.5489 8940.8552,5939.7653 8611.1511,5085.1403 8179.1624,4279.3511 7668.8283,3563.464 l -112.0776,-156.4963 -6.5288,952.2964 c -6.5288,1016.6707 -5.4408,1004.4618 -65.288,1330.7732 -169.7486,936.7577 -643.0863,1707.03 -1304.6709,2125.4633 -316.6465,200.8923 -660.4964,321.8717 -1055.4885,371.8173 -124.0471,15.5387 -514.6867,21.0882 -647.4388,8.8792 z m 593.0321,-380.6965 c 285.0908,-55.4951 508.1579,-179.8042 704.0218,-391.7956 330.7923,-358.4985 527.7442,-930.0983 611.5305,-1783.6134 44.6134,-445.0709 50.054,-638.1939 44.6134,-1576.0616 -7.617,-1351.8613 -5.4407,-1588.2705 9.7932,-1754.7559 l 14.1457,-152.0566 -46.7897,-44.3961 C 6381.5675,2088.4035 6297.7814,2016.2599 6221.612,1951.8855 5366.3399,1228.2291 4428.3696,777.60865 3503.4571,645.53024 2952.862,566.72714 2572.0156,603.35393 2256.4572,765.39968 c -535.3612,276.36572 -854.184,934.53792 -854.184,1768.07482 0,418.4332 90.315,1011.1212 256.7992,1693.7112 203.4808,834.6467 454.8394,1508.3576 734.4895,1966.7473 574.534,943.4171 1385.1927,1549.4239 2199.1158,1642.6557 124.0471,14.4288 350.3787,4.4396 477.6901,-21.0881 z"
       id="path4"
       inkscape:connector-curvature="0"
       style="stroke-width:1.09896362" />
  </g>
</svg>
